<svg width="20" height="22" viewBox="0 0 20 22" fill="none" xmlns="http://www.w3.org/2000/svg">
<path d="M10.8652 19.498C11.1424 19.0205 11.7543 18.8577 12.2319 19.1348C12.7096 19.4119 12.8723 20.0242 12.5952 20.502C12.3315 20.9565 11.9529 21.3339 11.4975 21.5962C11.0421 21.8585 10.5255 21.9966 9.99997 21.9966C9.4744 21.9966 8.95784 21.8585 8.50241 21.5962C8.04705 21.3339 7.66845 20.9565 7.40476 20.502C7.12764 20.0242 7.29033 19.4119 7.76804 19.1348C8.24569 18.8577 8.85755 19.0205 9.13474 19.498C9.22264 19.6496 9.34915 19.7754 9.50095 19.8628C9.65276 19.9502 9.82478 19.9966 9.99997 19.9966C10.1752 19.9966 10.3472 19.9502 10.499 19.8628C10.6508 19.7754 10.7773 19.6496 10.8652 19.498ZM15 7C15 5.67392 14.4733 4.40204 13.5356 3.46436C12.5979 2.52667 11.3261 2 9.99997 2C8.67389 2 7.40201 2.52667 6.46433 3.46436C5.52665 4.40204 4.99997 5.67392 4.99997 7C4.99997 10.6473 4.21707 13.0655 3.3779 14.604C3.3017 14.7437 3.22411 14.8752 3.14792 15H16.852C16.7758 14.8752 16.6982 14.7437 16.622 14.604C15.7829 13.0655 15 10.6473 15 7ZM17 7C17 10.3526 17.7171 12.4345 18.3779 13.646C18.7097 14.2542 19.0329 14.6532 19.2573 14.8901C19.3698 15.0089 19.458 15.088 19.5112 15.1323C19.5378 15.1545 19.5558 15.1681 19.5634 15.1738H19.563C19.5619 15.1731 19.5609 15.1718 19.5595 15.1709C19.5588 15.1704 19.5579 15.17 19.5571 15.1694L19.5561 15.1689C19.9217 15.4136 20.0844 15.8684 19.957 16.2896C19.8293 16.7113 19.4406 17 19 17H0.999972C0.559304 17 0.170639 16.7113 0.0429404 16.2896C-0.0844775 15.8684 0.0782482 15.4136 0.443819 15.1689L0.442843 15.1694C0.442058 15.17 0.441097 15.1704 0.440401 15.1709C0.439014 15.1718 0.43802 15.1731 0.436983 15.1738H0.436495C0.44419 15.1681 0.462146 15.1545 0.488741 15.1323C0.541957 15.088 0.630172 15.0089 0.742647 14.8901C0.967073 14.6532 1.29028 14.2542 1.62204 13.646C2.28285 12.4345 2.99997 10.3526 2.99997 7C2.99997 5.14348 3.73751 3.36305 5.05026 2.05029C6.36302 0.737538 8.14346 0 9.99997 0C11.8565 0 13.6369 0.737538 14.9497 2.05029C16.2624 3.36305 17 5.14348 17 7Z" fill="black"/>
</svg>
