{
	"asset":{
		"generator":"Khronos glTF Blender I/O v4.4.56",
		"version":"2.0"
	},
	"scene":0,
	"scenes":[
		{
			"name":"Scene",
			"nodes":[
				0
			]
		}
	],
	"nodes":[
		{
			"mesh":0,
			"name":"HOYA-BIT-Logo-1024x1024-2-03-1024x479.001",
			"translation":[
				-0.09128456562757492,
				0.12082993984222412,
				0.9805039763450623
			]
		}
	],
	"materials":[
		{
			"alphaMode":"BLEND",
			"doubleSided":true,
			"name":"HOYA-BIT-Logo-1024x1024-2-03-1024x479",
			"pbrMetallicRoughness":{
				"baseColorTexture":{
					"index":0
				},
				"metallicFactor":0,
				"roughnessFactor":0.5
			}
		}
	],
	"meshes":[
		{
			"name":"HOYA-BIT-Logo-1024x1024-2-03-1024x479.001",
			"primitives":[
				{
					"attributes":{
						"POSITION":0,
						"NORMAL":1,
						"TEXCOORD_0":2
					},
					"indices":3,
					"material":0
				}
			]
		}
	],
	"textures":[
		{
			"sampler":0,
			"source":0
		}
	],
	"images":[
		{
			"mimeType":"image/png",
			"name":"HOYA-BIT-Logo-1024x1024-2-03-1024x479",
			"uri":"HOYA-BIT-Logo-1024x1024-2-03-1024x479.png"
		}
	],
	"accessors":[
		{
			"bufferView":0,
			"componentType":5126,
			"count":2980,
			"max":[
				0.42863020300865173,
				3.7997961044311523e-06,
				0.39212143421173096
			],
			"min":[
				-0.3101543188095093,
				-0.1999962031841278,
				-0.34865260124206543
			],
			"type":"VEC3"
		},
		{
			"bufferView":1,
			"componentType":5126,
			"count":2980,
			"type":"VEC3"
		},
		{
			"bufferView":2,
			"componentType":5126,
			"count":2980,
			"type":"VEC2"
		},
		{
			"bufferView":3,
			"componentType":5123,
			"count":7392,
			"type":"SCALAR"
		}
	],
	"bufferViews":[
		{
			"buffer":0,
			"byteLength":35760,
			"byteOffset":0,
			"target":34962
		},
		{
			"buffer":0,
			"byteLength":35760,
			"byteOffset":35760,
			"target":34962
		},
		{
			"buffer":0,
			"byteLength":23840,
			"byteOffset":71520,
			"target":34962
		},
		{
			"buffer":0,
			"byteLength":14784,
			"byteOffset":95360,
			"target":34963
		}
	],
	"samplers":[
		{
			"magFilter":9729,
			"minFilter":9987,
			"wrapS":33071,
			"wrapT":33071
		}
	],
	"buffers":[
		{
			"byteLength":110144,
			"uri":"Hoya.bin"
		}
	]
}
