{
	"asset":{
		"generator":"Khronos glTF Blender I/O v4.4.56",
		"version":"2.0"
	},
	"scene":0,
	"scenes":[
		{
			"name":"Scene",
			"nodes":[
				0
			]
		}
	],
	"nodes":[
		{
			"mesh":0,
			"name":"HOYA-BIT-Logo-1024x1024-2-03-1024x479.001"
		}
	],
	"materials":[
		{
			"alphaMode":"BLEND",
			"doubleSided":true,
			"name":"HOYA-BIT-Logo-1024x1024-2-03-1024x479",
			"pbrMetallicRoughness":{
				"baseColorTexture":{
					"index":0
				},
				"metallicFactor":0,
				"roughnessFactor":0.5
			}
		}
	],
	"meshes":[
		{
			"name":"HOYA-BIT-Logo-1024x1024-2-03-1024x479.001",
			"primitives":[
				{
					"attributes":{
						"POSITION":0,
						"NORMAL":1,
						"TEXCOORD_0":2
					},
					"indices":3,
					"material":0
				}
			]
		}
	],
	"textures":[
		{
			"sampler":0,
			"source":0
		}
	],
	"images":[
		{
			"mimeType":"image/png",
			"name":"HOYA-BIT-Logo-1024x1024-2-03-1024x479",
			"uri":"HOYA-BIT-Logo-1024x1024-2-03-1024x479.png"
		}
	],
	"accessors":[
		{
			"bufferView":0,
			"componentType":5126,
			"count":17510,
			"max":[
				0.42889711260795593,
				0.0999990701675415,
				0.3922106623649597
			],
			"min":[
				-0.3098874092102051,
				-0.10000093281269073,
				-0.34856337308883667
			],
			"type":"VEC3"
		},
		{
			"bufferView":1,
			"componentType":5126,
			"count":17510,
			"type":"VEC3"
		},
		{
			"bufferView":2,
			"componentType":5126,
			"count":17510,
			"type":"VEC2"
		},
		{
			"bufferView":3,
			"componentType":5123,
			"count":29604,
			"type":"SCALAR"
		}
	],
	"bufferViews":[
		{
			"buffer":0,
			"byteLength":210120,
			"byteOffset":0,
			"target":34962
		},
		{
			"buffer":0,
			"byteLength":210120,
			"byteOffset":210120,
			"target":34962
		},
		{
			"buffer":0,
			"byteLength":140080,
			"byteOffset":420240,
			"target":34962
		},
		{
			"buffer":0,
			"byteLength":59208,
			"byteOffset":560320,
			"target":34963
		}
	],
	"samplers":[
		{
			"magFilter":9729,
			"minFilter":9987,
			"wrapS":33071,
			"wrapT":33071
		}
	],
	"buffers":[
		{
			"byteLength":619528,
			"uri":"Hoya.bin"
		}
	]
}
