<svg width="20" height="20" viewBox="0 0 20 20" fill="none" xmlns="http://www.w3.org/2000/svg">
<path d="M0 17V13C0 12.4477 0.447715 12 1 12C1.55228 12 2 12.4477 2 13V17C2 17.2652 2.10543 17.5195 2.29297 17.707C2.48051 17.8946 2.73478 18 3 18H17C17.2652 18 17.5195 17.8946 17.707 17.707C17.8946 17.5195 18 17.2652 18 17V13C18 12.4477 18.4477 12 19 12C19.5523 12 20 12.4477 20 13V17C20 17.7957 19.6837 18.5585 19.1211 19.1211C18.5585 19.6837 17.7957 20 17 20H3C2.20435 20 1.44152 19.6837 0.878906 19.1211C0.316297 18.5585 0 17.7956 0 17ZM9 1C9 0.447715 9.44772 0 10 0C10.5523 0 11 0.447715 11 1V10.5859L14.293 7.29297C14.6835 6.90244 15.3165 6.90244 15.707 7.29297C16.0976 7.68349 16.0976 8.31651 15.707 8.70703L10.707 13.707C10.3165 14.0976 9.68349 14.0976 9.29297 13.707L4.29297 8.70703C3.90244 8.31651 3.90244 7.68349 4.29297 7.29297C4.68349 6.90244 5.31651 6.90244 5.70703 7.29297L9 10.5859V1Z" fill="white"/>
</svg>
